<svg id="cart-add" xmlns="http://www.w3.org/2000/svg" width="50" height="50" viewBox="0 0 50 50">
  <path id="Path_4" data-name="Path 4" d="M34.628,83.569a5.787,5.787,0,1,1,5.628-5.784A5.708,5.708,0,0,1,34.628,83.569Zm0-7.23a1.447,1.447,0,1,0,1.407,1.446A1.427,1.427,0,0,0,34.628,76.338Z" transform="translate(-16.336 -33.569)" fill="#fff"/>
  <path id="Path_5" data-name="Path 5" d="M60.628,83.569a5.787,5.787,0,1,1,5.628-5.784A5.708,5.708,0,0,1,60.628,83.569Zm0-7.23a1.447,1.447,0,1,0,1.407,1.446A1.427,1.427,0,0,0,60.628,76.338Z" transform="translate(-24.044 -33.569)" fill="#fff"/>
  <path id="Path_6" data-name="Path 6" d="M25.775,48.6H49.7a2.122,2.122,0,0,0,.38,0h.12l.246-.08.127-.051a1.7,1.7,0,0,0,.246-.145.231.231,0,0,0,.07-.043,1.275,1.275,0,0,0,.281-.239l.07-.072a1.268,1.268,0,0,0,.169-.217l.07-.108a2.285,2.285,0,0,0,.127-.224c0-.043.035-.08.049-.123v-.051L60.8,21.944a2.219,2.219,0,0,0-.238-2.252,2.082,2.082,0,0,0-2.06-.807A2.133,2.133,0,0,0,56.865,20.4l-.8,2.169H20.808l-.8-2.169a2.115,2.115,0,0,0-1.977-1.446H13.111a2.17,2.17,0,0,0,0,4.338h3.454l7.662,21.193A5.788,5.788,0,0,0,20.2,50.852a5.681,5.681,0,0,0,5.57,4.981H54.62a2.17,2.17,0,0,0,0-4.338H25.775a1.447,1.447,0,0,1,0-2.892Zm8.443-15.184h2.111V31.25a2.111,2.111,0,1,1,4.221,0v2.169H42.66a2.17,2.17,0,0,1,0,4.338H40.549v2.169a2.111,2.111,0,1,1-4.221,0V37.757H34.217a2.17,2.17,0,0,1,0-4.338Z" transform="translate(-11 -18.848)" fill="#fff"/>
</svg>
